<mxfile host="app.diagrams.net" modified="2024-04-18T02:55:48.334Z" agent="Mozilla/5.0 (Windows NT 10.0; Win64; x64) AppleWebKit/537.36 (KHTML, like Gecko) Chrome/123.0.0.0 Safari/537.36" version="24.2.5" etag="vofrd_eq_N9hMhGBWzFT" type="github">
  <diagram name="第 1 页" id="RgHdYOKnfw_S_Q0Fx3bP">
    <mxGraphModel>
      <root>
        <mxCell id="0" />
        <mxCell id="1" parent="0" />
      </root>
    </mxGraphModel>
  </diagram>
</mxfile>
